<?xml version="1.0" encoding="iso-8859-1"?>
<!-- Generator: Adobe Illustrator 24.1.2, SVG Export Plug-In . SVG Version: 6.00 Build 0)  -->
<svg version="1.1" id="Layer_1" xmlns="http://www.w3.org/2000/svg" xmlns:xlink="http://www.w3.org/1999/xlink" x="0px" y="0px"
	 viewBox="0 0 36 36" style="enable-background:new 0 0 36 36;" xml:space="preserve">
<linearGradient id="SVGID_1_" gradientUnits="userSpaceOnUse" x1="28.62" y1="7.3099" x2="24.8329" y2="17.6192">
	<stop  offset="0" style="stop-color:#FD8F35"/>
	<stop  offset="1" style="stop-color:#EE4C26"/>
</linearGradient>
<path style="fill-rule:evenodd;clip-rule:evenodd;fill:url(#SVGID_1_);" d="M27.461,16.824c1.497,1.256,2.152,3.268,1.67,5.16
	c-0.103,0.361-0.241,0.722-0.413,1.049c3.322-4.455,2.754-10.699-1.343-14.483c-0.155-2.03-1.549-3.75-3.512-4.317
	c0.706,1.032,0.775,2.374,0.207,3.475c-0.654,1.032-1.635,1.823-2.771,2.236c0.258,0.155,0.465,0.447,0.516,0.757
	c2.048-0.275,4.028,0.843,4.871,2.752c-0.568-0.12-1.153,0.12-1.445,0.619c1.704,0.086,3.133,1.273,3.546,2.907
	C28.373,16.772,27.908,16.72,27.461,16.824L27.461,16.824z"/>
<linearGradient id="SVGID_2_" gradientUnits="userSpaceOnUse" x1="6.0887" y1="20.0658" x2="0.4871" y2="16.121">
	<stop  offset="0" style="stop-color:#FFFFFF"/>
	<stop  offset="1" style="stop-color:#BFBFBF"/>
</linearGradient>
<path style="fill-rule:evenodd;clip-rule:evenodd;fill:url(#SVGID_2_);" d="M7.751,19.352c-1.532-0.447-3.287-1.135-6.472-3.922
	c0.069,1.238,0.138,2.477,0.568,3.63c0.637,1.651,2.065,3.13,3.77,3.749c0.74,0.275,1.515,0.396,2.289,0.379
	c-1.876,0-3.649-1.084-4.458-2.855c0.62,0.172,1.274,0.12,1.842-0.138c-0.396-0.361-0.809-0.705-1.239-1.049
	c0.981-0.189,2.014-0.086,2.943,0.31c1.119,0.379,2.29,0.499,3.46,0.361C9.645,19.799,8.732,19.627,7.751,19.352L7.751,19.352z"/>
<linearGradient id="SVGID_3_" gradientUnits="userSpaceOnUse" x1="16.4223" y1="35.0963" x2="15.5808" y2="27.1013">
	<stop  offset="0" style="stop-color:#FD8F35"/>
	<stop  offset="1" style="stop-color:#EE4C26"/>
</linearGradient>
<path style="fill-rule:evenodd;clip-rule:evenodd;fill:url(#SVGID_3_);" d="M16.771,25.648c0.792-0.447,1.514-1.032,2.117-1.703
	c-0.396-0.069-0.792-0.155-1.188-0.241c-1.033,0.74-2.238,1.204-3.511,1.359c-0.947,1.393-1.618,2.941-1.98,4.592h1.601
	C14.017,27.884,15.136,26.37,16.771,25.648L16.771,25.648z"/>
<linearGradient id="SVGID_4_" gradientUnits="userSpaceOnUse" x1="26.3819" y1="34.0482" x2="25.5404" y2="26.053">
	<stop  offset="0" style="stop-color:#FD8F35"/>
	<stop  offset="1" style="stop-color:#EE4C26"/>
</linearGradient>
<path style="fill-rule:evenodd;clip-rule:evenodd;fill:url(#SVGID_4_);" d="M25.498,24.34c-0.671,0.052-1.36,0.069-2.031,0.069
	c1.566,1.221,2.341,3.2,2.014,5.16h1.635c-0.241-1.393-0.155-2.804,0.258-4.145C26.738,25.08,26.083,24.736,25.498,24.34
	L25.498,24.34z"/>
<path style="fill-rule:evenodd;clip-rule:evenodd;fill:#5F6D84;" d="M20.455,11.56c0.362,0.017,0.706,0.069,1.033,0.155
	c0.241-0.224,0.379-0.55,0.362-0.877c-0.017-0.052-0.017-0.103-0.035-0.138c-0.051-0.31-0.258-0.602-0.516-0.757
	c-0.534,0.189-1.119,0.31-1.704,0.327C19.508,10.855,19.869,11.423,20.455,11.56L20.455,11.56z"/>
<linearGradient id="SVGID_5_" gradientUnits="userSpaceOnUse" x1="23.2726" y1="5.431" x2="22.7467" y2="11.8477">
	<stop  offset="0" style="stop-color:#FD8F35"/>
	<stop  offset="1" style="stop-color:#EE4C26"/>
</linearGradient>
<path style="fill-rule:evenodd;clip-rule:evenodd;fill:url(#SVGID_5_);" d="M23.002,8.19c0.551-0.43,0.929-1.032,1.067-1.703
	c-0.499-0.361-1.136-0.499-1.738-0.344C22.762,6.728,23.002,7.45,23.002,8.19L23.002,8.19z"/>
<path style="fill-rule:evenodd;clip-rule:evenodd;fill:#FC7303;" d="M24.592,15.316"/>
<linearGradient id="SVGID_6_" gradientUnits="userSpaceOnUse" x1="16.6186" y1="16.2223" x2="18.7224" y2="23.2704">
	<stop  offset="0" style="stop-color:#FD8F35"/>
	<stop  offset="1" style="stop-color:#EE4C26"/>
</linearGradient>
<path style="fill-rule:evenodd;clip-rule:evenodd;fill:url(#SVGID_6_);" d="M28.831,23.12c-0.005-0.001-0.01-0.002-0.016-0.003
	c-0.194-0.053-0.514-0.359-0.943-1.515c-0.25-0.674-0.394-1.25-0.533-1.807c-0.204-0.817-0.381-1.523-0.84-2.314
	c-0.502-0.865-1.301-1.673-1.792-2.127c-0.993,0.125-1.983,0.396-2.892,0.816c-0.534,0.327-1.084,0.602-1.687,0.791
	c-0.706,0.224-1.446,0.327-2.22,0.413c-1.016,0.103-2.066,0.189-2.978,0.585c-0.947,0.43-1.756,1.204-2.737,1.582
	c-0.534,0.206-1.102,0.292-1.739,0.275c-1.17,0.138-2.341,0.017-3.46-0.361c-0.929-0.395-1.962-0.499-2.943-0.31
	c0.43,0.344,0.843,0.688,1.239,1.049c-0.568,0.258-1.222,0.31-1.842,0.138c0.809,1.772,2.582,2.855,4.458,2.855
	c0.344-0.017,0.671-0.052,0.999-0.12c0.344-0.051,0.688-0.155,1.015-0.258c0.998-0.361,1.876-0.963,2.875-1.273
	c0.465-0.155,0.929-0.241,1.411-0.327c-2.978,1.892-5.095,4.902-5.852,8.359h1.601c0.534-2.271,2.238-4.094,4.441-4.799
	c0.155-0.051,0.31-0.103,0.465-0.138c1.911-0.327,3.529-1.617,4.286-3.423c-0.19,0.86-0.654,1.634-1.325,2.202
	c2.41,0.533,4.889,0.705,7.35,0.568c-1.102-0.774-1.928-1.858-2.393-3.113c0.809,1.118,1.618,2.219,2.703,2.993
	c1.033,0.722,2.306,1.135,3.374,1.806c1.532,0.946,2.651,2.425,3.787,3.904H35C33.305,27.114,31.227,24.927,28.831,23.12z"/>
<path style="fill:#B3B3B3;" d="M28.831,23.12c0.018,0.004,0.034,0.006,0.049,0.006c0.058,0,0.091-0.024,0.095-0.028l-0.04-0.051
	c-0.001,0.001-0.037,0.027-0.107,0.006c-0.027-0.008-0.059-0.023-0.096-0.049c-0.005,0.009-0.009,0.019-0.014,0.029
	C28.755,23.062,28.793,23.091,28.831,23.12z"/>
<linearGradient id="SVGID_7_" gradientUnits="userSpaceOnUse" x1="26.9845" y1="17.0193" x2="19.4105" y2="15.8621">
	<stop  offset="0" style="stop-color:#FFFFFF"/>
	<stop  offset="1" style="stop-color:#BFBFBF"/>
</linearGradient>
<path style="fill-rule:evenodd;clip-rule:evenodd;fill:url(#SVGID_7_);" d="M26.554,17.448c0.464,0.798,0.641,1.508,0.847,2.331
	c0.139,0.555,0.282,1.129,0.531,1.8c0.358,0.966,0.632,1.308,0.8,1.426c0.165-0.32,0.299-0.67,0.399-1.021
	c0.482-1.892-0.172-3.905-1.67-5.16c0.448-0.103,0.913-0.051,1.326,0.155c-0.413-1.634-1.842-2.821-3.546-2.907
	c0.292-0.499,0.878-0.739,1.445-0.619c-0.843-1.909-2.823-3.027-4.871-2.752c0.017,0.034,0.017,0.086,0.035,0.138
	c0.017,0.327-0.12,0.653-0.362,0.877c1.664,0.463,2.969,1.848,3.284,3.612C25.267,15.787,26.055,16.589,26.554,17.448z"/>
<path style="fill:#E6E6E6;" d="M7.765,29.987l27.193-0.144c0,0-8.657,0.831-14.02,0.831C14.234,30.674,7.765,29.987,7.765,29.987z"
	/>
<path style="fill-rule:evenodd;clip-rule:evenodd;fill:#FFFFFF;" d="M24.803,8.815c0,0,0.414-0.665,0.688-0.447
	C25.791,8.607,25.139,9.109,24.803,8.815z"/>
</svg>
